{
  "asset": {
    "version": "2.0",
    "generator": "THREE.GLTFExporter r165"
  },
  "scenes": [
    {
      "name": "Scene",
      "nodes": [
        7
      ]
    }
  ],
  "scene": 0,
  "nodes": [
    {
      "matrix": [
        -0.2908646775532549,
        -0.05518904522473682,
        -0.9551712124420509,
        0,
        -0.7711009254164625,
        0.6045246338968102,
        0.19988339509297365,
        0,
        0.5663931554665306,
        0.7946723905074929,
        -0.21839119484224845,
        0,
        4.076245307922363,
        5.903861999511719,
        -1.0054539442062378,
        1
      ],
      "name": "Light",
      "extras": {
        "name": "Light"
      },
      "extensions": {
        "KHR_lights_punctual": {
          "light": 0
        }
      }
    },
    {
      "matrix": [
        0.14015287160873413,
        0,
        0,
        0,
        0,
        0.4501528739929199,
        0,
        0,
        0,
        0,
        0.5601528882980347,
        0,
        -5.369427680969238,
        -2.050816059112549,
        2.2115426063537598,
        1
      ],
      "name": "Cube",
      "extras": {
        "name": "Cube"
      },
      "mesh": 0
    },
    {
      "matrix": [
        -4.800447110577863e-7,
        -3.5728554757722506,
        0,
        0,
        3.5728554757722506,
        -4.800447110577863e-7,
        0,
        0,
        0,
        0,
        3.572854995727539,
        0,
        -4.528674125671387,
        -0.9522314071655273,
        -0.06551676243543625,
        1
      ],
      "name": "Plane",
      "extras": {
        "name": "Plane"
      },
      "mesh": 1
    },
    {
      "matrix": [
        1.4248789548873901,
        0,
        0,
        0,
        0,
        0.13082151114940643,
        0,
        0,
        0,
        0,
        2.398693084716797,
        0,
        -2.6568446159362793,
        -3.610405921936035,
        8.135931015014648,
        1
      ],
      "name": "Cube001",
      "extras": {
        "name": "Cube.001"
      },
      "mesh": 2
    },
    {
      "name": "Cube001_1",
      "mesh": 3
    },
    {
      "name": "Cube001_2",
      "mesh": 4
    },
    {
      "matrix": [
        -0.10480552166700363,
        0,
        0,
        0,
        0,
        0.7407940030097961,
        0,
        0,
        0,
        0,
        0.9056481719017029,
        0,
        -3.4653737545013428,
        -0.6187494397163391,
        0.5477921962738037,
        1
      ],
      "name": "Cube002",
      "extras": {
        "name": "Cube.002"
      },
      "children": [
        4,
        5
      ]
    },
    {
      "name": "FirstPage1_2.glb",
      "children": [
        0,
        1,
        2,
        3,
        6
      ]
    }
  ],
  "extensions": {
    "KHR_lights_punctual": {
      "lights": [
        {
          "name": "Light",
          "color": [
            1,
            1,
            1
          ],
          "intensity": 50,
          "type": "point"
        }
      ]
    }
  },
  "bufferViews": [
    {
      "buffer": 0,
      "byteOffset": 0,
      "byteLength": 696,
      "target": 34962,
      "byteStride": 12
    },
    {
      "buffer": 0,
      "byteOffset": 696,
      "byteLength": 696,
      "target": 34962,
      "byteStride": 12
    },
    {
      "buffer": 0,
      "byteOffset": 1392,
      "byteLength": 464,
      "target": 34962,
      "byteStride": 8
    },
    {
      "buffer": 0,
      "byteOffset": 1856,
      "byteLength": 228,
      "target": 34963
    },
    {
      "buffer": 0,
      "byteOffset": 2084,
      "byteLength": 48,
      "target": 34962,
      "byteStride": 12
    },
    {
      "buffer": 0,
      "byteOffset": 2132,
      "byteLength": 48,
      "target": 34962,
      "byteStride": 12
    },
    {
      "buffer": 0,
      "byteOffset": 2180,
      "byteLength": 32,
      "target": 34962,
      "byteStride": 8
    },
    {
      "buffer": 0,
      "byteOffset": 2212,
      "byteLength": 12,
      "target": 34963
    },
    {
      "buffer": 0,
      "byteOffset": 2224,
      "byteLength": 3732,
      "target": 34962,
      "byteStride": 12
    },
    {
      "buffer": 0,
      "byteOffset": 5956,
      "byteLength": 3732,
      "target": 34962,
      "byteStride": 12
    },
    {
      "buffer": 0,
      "byteOffset": 9688,
      "byteLength": 2488,
      "target": 34962,
      "byteStride": 8
    },
    {
      "buffer": 0,
      "byteOffset": 12176,
      "byteLength": 1368,
      "target": 34963
    },
    {
      "buffer": 0,
      "byteOffset": 13544,
      "byteLength": 1776,
      "target": 34962,
      "byteStride": 12
    },
    {
      "buffer": 0,
      "byteOffset": 15320,
      "byteLength": 1776,
      "target": 34962,
      "byteStride": 12
    },
    {
      "buffer": 0,
      "byteOffset": 17096,
      "byteLength": 1184,
      "target": 34962,
      "byteStride": 8
    },
    {
      "buffer": 0,
      "byteOffset": 18280,
      "byteLength": 516,
      "target": 34963
    },
    {
      "buffer": 0,
      "byteOffset": 18796,
      "byteLength": 96,
      "target": 34962,
      "byteStride": 12
    },
    {
      "buffer": 0,
      "byteOffset": 18892,
      "byteLength": 96,
      "target": 34962,
      "byteStride": 12
    },
    {
      "buffer": 0,
      "byteOffset": 18988,
      "byteLength": 64,
      "target": 34962,
      "byteStride": 8
    },
    {
      "buffer": 0,
      "byteOffset": 19052,
      "byteLength": 36,
      "target": 34963
    }
  ],
  "buffers": [
    {
      "byteLength": 19088,
      "uri": "data:application/octet-stream;base64,"
    }
  ],
  "accessors": [
    {
      "bufferView": 0,
      "componentType": 5126,
      "count": 58,
      "max": [
        1.2025128602981567,
        1.0064741373062134,
        1
      ],
      "min": [
        -1,
        -1,
        -1
      ],
      "type": "VEC3"
    },
    {
      "bufferView": 1,
      "componentType": 5126,
      "count": 58,
      "max": [
        0.9047756195068359,
        1,
        1
      ],
      "min": [
        -1,
        -1,
        -1
      ],
      "type": "VEC3"
    },
    {
      "bufferView": 2,
      "componentType": 5126,
      "count": 58,
      "max": [
        0.875,
        1
      ],
      "min": [
        0.125,
        0
      ],
      "type": "VEC2"
    },
    {
      "bufferView": 3,
      "componentType": 5123,
      "count": 114,
      "max": [
        57
      ],
      "min": [
        0
      ],
      "type": "SCALAR"
    },
    {
      "bufferView": 4,
      "componentType": 5126,
      "count": 4,
      "max": [
        1,
        0,
        1
      ],
      "min": [
        -1,
        0,
        -1
      ],
      "type": "VEC3"
    },
    {
      "bufferView": 5,
      "componentType": 5126,
      "count": 4,
      "max": [
        0,
        1,
        0
      ],
      "min": [
        0,
        1,
        0
      ],
      "type": "VEC3"
    },
    {
      "bufferView": 6,
      "componentType": 5126,
      "count": 4,
      "max": [
        1,
        1
      ],
      "min": [
        0,
        0
      ],
      "type": "VEC2"
    },
    {
      "bufferView": 7,
      "componentType": 5123,
      "count": 6,
      "max": [
        3
      ],
      "min": [
        0
      ],
      "type": "SCALAR"
    },
    {
      "bufferView": 8,
      "componentType": 5126,
      "count": 311,
      "max": [
        0.6495426297187805,
        16.057275772094727,
        -2.501685857772827
      ],
      "min": [
        -1.3119423389434814,
        -6.730854034423828,
        -4.554937362670898
      ],
      "type": "VEC3"
    },
    {
      "bufferView": 9,
      "componentType": 5126,
      "count": 311,
      "max": [
        1,
        1,
        1
      ],
      "min": [
        -1,
        -1,
        -1
      ],
      "type": "VEC3"
    },
    {
      "bufferView": 10,
      "componentType": 5126,
      "count": 311,
      "max": [
        0.875,
        1
      ],
      "min": [
        0,
        0
      ],
      "type": "VEC2"
    },
    {
      "bufferView": 11,
      "componentType": 5123,
      "count": 684,
      "max": [
        310
      ],
      "min": [
        0
      ],
      "type": "SCALAR"
    },
    {
      "bufferView": 12,
      "componentType": 5126,
      "count": 148,
      "max": [
        6.3586249351501465,
        1,
        1
      ],
      "min": [
        -0.9412829279899597,
        -1.2398592233657837,
        -1
      ],
      "type": "VEC3"
    },
    {
      "bufferView": 13,
      "componentType": 5126,
      "count": 148,
      "max": [
        1,
        1,
        1
      ],
      "min": [
        -0.9580461978912354,
        -1,
        -1
      ],
      "type": "VEC3"
    },
    {
      "bufferView": 14,
      "componentType": 5126,
      "count": 148,
      "max": [
        0.8636495471000671,
        1
      ],
      "min": [
        0.13635049760341644,
        0.011350512504577637
      ],
      "type": "VEC2"
    },
    {
      "bufferView": 15,
      "componentType": 5123,
      "count": 258,
      "max": [
        147
      ],
      "min": [
        0
      ],
      "type": "SCALAR"
    },
    {
      "bufferView": 16,
      "componentType": 5126,
      "count": 8,
      "max": [
        -0.6589407324790955,
        0.9412829279899597,
        0.9412829279899597
      ],
      "min": [
        -0.6589407324790955,
        -0.9412829279899597,
        -0.9412829279899597
      ],
      "type": "VEC3"
    },
    {
      "bufferView": 17,
      "componentType": 5126,
      "count": 8,
      "max": [
        -1,
        0,
        0
      ],
      "min": [
        -1,
        0,
        0
      ],
      "type": "VEC3"
    },
    {
      "bufferView": 18,
      "componentType": 5126,
      "count": 8,
      "max": [
        0.6176603436470032,
        0.9926603436470032
      ],
      "min": [
        0.3823395371437073,
        0.7573396563529968
      ],
      "type": "VEC2"
    },
    {
      "bufferView": 19,
      "componentType": 5123,
      "count": 18,
      "max": [
        7
      ],
      "min": [
        0
      ],
      "type": "SCALAR"
    }
  ],
  "materials": [
    {
      "pbrMetallicRoughness": {
        "baseColorFactor": [
          0.010960094003125918,
          0,
          0.13843161502267545,
          1
        ],
        "metallicFactor": 0,
        "roughnessFactor": 0.8119266033172607
      },
      "doubleSided": true,
      "name": "Folders"
    },
    {
      "pbrMetallicRoughness": {
        "baseColorFactor": [
          0.7454042095350284,
          0.7991027380100881,
          0.407240211891531,
          1
        ],
        "metallicFactor": 0,
        "roughnessFactor": 0.5
      },
      "doubleSided": true,
      "name": "Backgroud"
    },
    {
      "pbrMetallicRoughness": {
        "metallicFactor": 0,
        "roughnessFactor": 0.43454545736312866
      },
      "doubleSided": true,
      "name": "Table"
    },
    {
      "pbrMetallicRoughness": {
        "baseColorFactor": [
          0.02955683443236377,
          0.02955683443236377,
          0.02955683443236377,
          1
        ],
        "metallicFactor": 0.30708661675453186,
        "roughnessFactor": 0.12992125749588013
      },
      "doubleSided": true,
      "name": "Material.002"
    },
    {
      "pbrMetallicRoughness": {
        "baseColorFactor": [
          0.005181516700061659,
          0.76052450467022,
          0.7991027380100881,
          1
        ],
        "metallicFactor": 0,
        "roughnessFactor": 0.5
      },
      "doubleSided": true,
      "name": "Material.001"
    }
  ],
  "meshes": [
    {
      "primitives": [
        {
          "mode": 4,
          "attributes": {
            "POSITION": 0,
            "NORMAL": 1,
            "TEXCOORD_0": 2
          },
          "indices": 3,
          "material": 0
        }
      ]
    },
    {
      "primitives": [
        {
          "mode": 4,
          "attributes": {
            "POSITION": 4,
            "NORMAL": 5,
            "TEXCOORD_0": 6
          },
          "indices": 7,
          "material": 1
        }
      ]
    },
    {
      "primitives": [
        {
          "mode": 4,
          "attributes": {
            "POSITION": 8,
            "NORMAL": 9,
            "TEXCOORD_0": 10
          },
          "indices": 11,
          "material": 2
        }
      ]
    },
    {
      "primitives": [
        {
          "mode": 4,
          "attributes": {
            "POSITION": 12,
            "NORMAL": 13,
            "TEXCOORD_0": 14
          },
          "indices": 15,
          "material": 3
        }
      ]
    },
    {
      "primitives": [
        {
          "mode": 4,
          "attributes": {
            "POSITION": 16,
            "NORMAL": 17,
            "TEXCOORD_0": 18
          },
          "indices": 19,
          "material": 4
        }
      ]
    }
  ],
  "extensionsUsed": [
    "KHR_lights_punctual"
  ]
}